PathFileType  4	(X/Y/Z) C:\Users\antoi\Documents\MyRepositories\mobilecap\ResultsAnalysis
DataRate	CameraRate	NumFrames	NumMarkers	Units	OrigDataRate	OrigDataStartFrame	OrigNumFrames
100.0	100.0	4	51	mm	100.0	47	371
Frame#	Time	r_knee			r_shank_antsup			r_ankle			r_calc			r_5meta			r_toe			L_knee			L_shank_antsup			L_ankle			L_calc			L_5meta			L_toe			r_sh2			r_sh3			r_sh4			L_sh2			L_sh3			r_thigh1			r_thigh2			r_thigh3			r_thigh4			r_thigh5			L_thigh1			L_thigh2			L_thigh3			L_thigh4			r.ASIS			r.PSIS			L.ASIS			L.PSIS			C7			R_Shoulder			L_Shoulder			R_Sternum			L_Sternum			R_humerus			R_elbow_med			R_elbow_lat			R_forearm			R_wrist_radius			R_wrist_ulna			L_humerus			L_elbow_med			L_elbow_lat			L_forearm			L_wrist_radius			L_wrist_ulna			R_HJC			L_HJC			R_HJC_reg			L_HJC_reg			
		X1	Y1	Z1	X2	Y2	Z2	X3	Y3	Z3	X4	Y4	Z4	X5	Y5	Z5	X6	Y6	Z6	X7	Y7	Z7	X8	Y8	Z8	X9	Y9	Z9	X10	Y10	Z10	X11	Y11	Z11	X12	Y12	Z12	X13	Y13	Z13	X14	Y14	Z14	X15	Y15	Z15	X16	Y16	Z16	X17	Y17	Z17	X18	Y18	Z18	X19	Y19	Z19	X20	Y20	Z20	X21	Y21	Z21	X22	Y22	Z22	X23	Y23	Z23	X24	Y24	Z24	X25	Y25	Z25	X26	Y26	Z26	X27	Y27	Z27	X28	Y28	Z28	X29	Y29	Z29	X30	Y30	Z30	X31	Y31	Z31	X32	Y32	Z32	X33	Y33	Z33	X34	Y34	Z34	X35	Y35	Z35	X36	Y36	Z36	X37	Y37	Z37	X38	Y38	Z38	X39	Y39	Z39	X40	Y40	Z40	X41	Y41	Z41	X42	Y42	Z42	X43	Y43	Z43	X44	Y44	Z44	X45	Y45	Z45	X46	Y46	Z46	X47	Y47	Z47	X48	Y48	Z48	X49	Y49	Z49	X50	Y50	Z50	X51	Y51	Z51	

47	0.46000000	-1223.08141	780.24619	-421.22705	-1188.28832	672.39055	-434.33397	-1256.29694	396.55968	-461.88648	-1300.46677	358.39079	-515.94274	-1143.06084	348.50587	-422.79439	-1105.24041	367.11159	-464.78716	-1215.42512	781.78121	-753.54691	-1180.20051	682.43449	-711.44442	-1263.11631	396.63182	-731.35175	-1303.65589	366.82425	-695.20582	-1141.39582	346.85746	-745.86450	-1102.69578	367.57670	-693.25895	-1199.17424	560.03446	-450.15801	-1247.44875	669.13544	-387.25731	-1272.47379	563.20015	-411.71497	-1233.75975	703.65433	-780.63261	-1246.29703	583.17468	-788.51940	-1127.96268	1080.15902	-432.81321	-1125.84300	971.18444	-425.35881	-1171.75617	946.45348	-383.79945	-1230.82215	1077.18194	-391.46100	-1225.75917	963.02376	-383.24778	-1125.70652	1068.03989	-756.35774	-1123.91795	930.59983	-755.80597	-1233.13108	1072.35866	-798.07297	-1230.08296	930.65703	-787.58838	-1106.56624	1239.17713	-464.21349	-1281.87951	1304.76300	-540.25053	-1093.00972	1238.13504	-708.85420	-1279.12546	1305.39310	-657.37322	-1275.00551	1752.19636	-593.93847	-1226.60413	1713.48118	-438.91567	-1216.44310	1721.26093	-750.28163	-1155.30575	1701.92816	-570.46698	-1152.35047	1698.38401	-613.57723	-1197.46659	1586.92208	-373.81973	-1256.22295	1385.61620	-425.32495	-1226.98498	1393.11560	-354.82341	-1161.97145	1282.81854	-343.24542	-1120.50391	1186.26953	-351.04762	-1149.47004	1177.04902	-328.01284	-1179.07905	1571.08554	-810.37158	-1238.36354	1383.09571	-747.93231	-1212.34372	1387.87578	-827.03806	-1153.36992	1306.61489	-842.41006	-1104.77659	1184.08307	-827.43913	-1129.45150	1175.62900	-847.40608	-1204.40820	1179.60391	-494.76573	-1190.60685	1175.01676	-683.58423	-1183.73708	1178.39808	-500.65037	-1179.93566	1179.26780	-662.31536	
48	0.47000000	-1223.08911	780.22403	-421.22541	-1188.27148	672.39177	-434.33912	-1256.31482	396.49310	-461.90022	-1300.57154	358.32442	-516.03649	-1143.09411	348.46969	-422.84224	-1105.25076	367.12032	-464.75368	-1215.42486	781.78650	-753.53986	-1180.17816	682.39930	-711.45906	-1263.12944	396.60780	-731.33621	-1303.66248	366.81868	-695.20550	-1141.38845	346.87125	-745.85304	-1102.68826	367.60870	-693.32543	-1199.06655	560.02576	-450.19109	-1247.41385	669.08718	-387.19257	-1272.47706	563.23063	-411.70260	-1233.68935	703.51238	-780.54636	-1246.29952	583.12716	-788.58006	-1128.11088	1080.16148	-432.74432	-1125.99056	971.15944	-425.39211	-1171.89034	946.53099	-383.72516	-1231.02170	1077.17326	-391.34197	-1225.90230	962.95094	-383.27398	-1125.86847	1068.08467	-756.37005	-1123.98796	930.65058	-755.80201	-1233.30322	1072.35233	-798.01091	-1230.20335	930.63011	-787.52404	-1106.74585	1239.18495	-464.20859	-1282.05140	1304.76356	-540.17153	-1093.29891	1238.11156	-708.92163	-1279.36795	1305.39938	-657.28782	-1274.36405	1752.53685	-594.22490	-1226.22720	1713.48962	-439.01443	-1216.23091	1721.28349	-750.23926	-1155.01698	1701.75423	-570.36561	-1152.11444	1698.24024	-613.63922	-1197.49178	1586.93316	-373.76959	-1256.68114	1385.72322	-425.23379	-1227.52355	1393.19371	-354.69611	-1162.65359	1282.84654	-343.05849	-1121.33166	1186.19175	-350.74921	-1150.25007	1176.99947	-327.80521	-1179.10985	1571.12641	-810.43940	-1238.37167	1383.14063	-747.82170	-1212.64872	1388.00275	-827.14044	-1154.08732	1306.55616	-842.63916	-1105.60801	1183.80968	-827.91135	-1130.39649	1175.48610	-847.96211	-1204.58535	1179.60953	-494.72654	-1190.89037	1175.00896	-683.55246	-1183.92316	1178.36811	-500.61243	-1180.21793	1179.24612	-662.32344	
49	0.48000000	-1223.09705	780.23260	-421.24103	-1188.24220	672.39581	-434.32038	-1256.30028	396.45145	-461.95558	-1300.61272	358.33697	-516.14171	-1143.10665	348.46167	-422.86773	-1105.26935	367.13099	-464.73331	-1215.41071	781.78511	-753.52755	-1180.14043	682.36576	-711.45553	-1263.13255	396.59767	-731.34270	-1303.67805	366.81379	-695.19309	-1141.38590	346.88381	-745.84348	-1102.68578	367.66710	-693.34906	-1199.00136	559.99053	-450.21749	-1247.38302	669.08808	-387.18764	-1272.47815	563.25315	-411.69582	-1233.61755	703.43190	-780.52792	-1246.22226	583.04480	-788.51944	-1128.20654	1080.14909	-432.72506	-1126.14245	971.12328	-425.46504	-1171.99269	946.59376	-383.67521	-1231.17909	1077.27497	-391.18863	-1225.99857	963.00984	-383.20000	-1125.90577	1068.08379	-756.59705	-1124.10808	930.64101	-755.75841	-1233.56219	1072.42019	-798.37057	-1230.30424	930.62382	-787.52228	-1106.93629	1239.19692	-464.21782	-1282.29774	1304.76394	-540.17184	-1093.58261	1238.12370	-709.00817	-1279.58214	1305.39470	-657.13436	-1273.61042	1752.88151	-594.33659	-1225.83519	1713.59265	-438.94944	-1215.91869	1721.26483	-750.24817	-1154.69715	1701.63918	-570.31972	-1151.93158	1698.08625	-613.69789	-1197.45448	1586.97058	-373.73459	-1257.23852	1385.84137	-425.03306	-1227.98993	1393.33071	-354.53494	-1163.34157	1282.84423	-342.80449	-1122.24479	1186.11026	-350.45555	-1151.14887	1176.91742	-327.44385	-1179.13201	1571.12090	-810.46769	-1239.03178	1383.05155	-748.33316	-1213.04063	1388.15202	-827.27060	-1154.84882	1306.50963	-842.87410	-1106.59609	1183.55024	-828.54317	-1131.40210	1175.22751	-848.47562	-1204.77030	1179.60810	-494.71116	-1191.16053	1175.01918	-683.54352	-1184.17919	1178.34623	-500.65999	-1180.42343	1179.21856	-662.41742	
50	0.49000000	-1223.09351	780.28912	-421.26407	-1188.20330	672.39399	-434.30675	-1256.27667	396.45828	-462.00119	-1300.52129	358.40572	-516.14887	-1143.09697	348.51527	-422.87025	-1105.29489	367.14734	-464.75211	-1215.38778	781.78210	-753.52047	-1180.09017	682.33925	-711.44127	-1263.12572	396.60144	-731.36548	-1303.70152	366.80179	-695.17744	-1141.39028	346.88747	-745.84004	-1102.69033	367.72300	-693.33366	-1198.94387	559.95724	-450.23594	-1247.34713	669.10585	-387.18464	-1272.47239	563.24050	-411.69742	-1233.52401	703.37246	-780.50250	-1246.13245	582.99605	-788.41825	-1128.33278	1080.16035	-432.67453	-1126.24170	971.11790	-425.66823	-1172.04354	946.61688	-383.66766	-1231.31035	1077.39947	-391.08255	-1226.05724	963.14731	-383.04322	-1125.95138	1068.10479	-757.04532	-1124.27768	930.65677	-755.68813	-1233.87152	1072.34280	-799.00216	-1230.40176	930.62454	-787.51594	-1107.13650	1239.25137	-464.20434	-1282.57373	1304.79155	-540.27718	-1093.88892	1238.17899	-709.13629	-1279.82861	1305.36115	-657.01886	-1272.98027	1753.18654	-593.99698	-1225.40307	1713.68418	-438.92514	-1215.47476	1721.25753	-750.30206	-1154.29165	1701.48887	-570.40064	-1151.73674	1697.96444	-613.76756	-1197.36670	1587.02834	-373.73419	-1257.71065	1386.00191	-424.81060	-1228.34360	1393.50261	-354.36270	-1164.04113	1282.77023	-342.52718	-1123.28441	1186.00773	-350.11760	-1152.15624	1176.83725	-327.03620	-1179.12961	1571.09340	-810.47464	-1240.00103	1382.90249	-749.01092	-1213.47864	1388.29241	-827.39637	-1155.57570	1306.44802	-843.13809	-1107.75877	1183.30265	-829.29196	-1132.59605	1174.96621	-849.15185	-1204.96699	1179.63954	-494.72337	-1191.42191	1175.03614	-683.56003	-1184.46204	1178.39574	-500.66668	-1180.65638	1179.18524	-662.51287	
